# File generated by ImageToStl.com - Free Image and 3D model conversion tools

o obj1
v -0.00494269 -0.00620132 0.01974517
v -0.00499763 -0.01100131 0.01899986
v -0.00494271 -0.00620129 0.01825474
v -0.00494179 -0.01100129 0.01825465
v -0.00450342 -0.00620118 0.01683053
v -0.0045025 -0.01100118 0.01683044
v -0.00366385 -0.00620099 0.01559907
v -0.00366294 -0.01100099 0.01559898
v -0.00249861 -0.00620075 0.01466979
v -0.00249769 -0.01100075 0.0146697
v -0.00111122 -0.00620048 0.01412526
v -0.0011103 -0.01100048 0.01412517
v 1.38E-06 -0.00620027 0.01399988
v 0.00037595 -0.01100019 0.01401377
v 0.00037504 -0.00620019 0.01401386
v 0.0018281 -0.00619992 0.01434549
v 0.00182901 -0.01099992 0.0143454
v 0.00311885 -0.00619969 0.01509068
v 0.00311976 -0.01099969 0.01509059
v 0.00413261 -0.00619952 0.01618322
v 0.00413353 -0.01099952 0.01618313
v 0.0047793 -0.00619942 0.01752604
v 0.00478022 -0.01099942 0.01752595
v 0.00500146 -0.00619941 0.01899981
v 0.00500237 -0.01099941 0.01899972
v 0.00477934 -0.00619948 0.02047359
v 0.00478026 -0.01099948 0.0204735
v 0.00413269 -0.00619963 0.02181642
v 0.00413361 -0.01099963 0.02181633
v 0.00311896 -0.00619984 0.02290899
v 0.00311988 -0.01099984 0.0229089
v 0.00182823 -0.0062001 0.02365422
v 0.00182915 -0.0110001 0.02365413
v 0.00037518 -0.00620038 0.0239859
v 0.0003761 -0.01100038 0.0239858
v -0.00111108 -0.00620066 0.02387454
v -0.00111016 -0.01100066 0.02387445
v -0.00249848 -0.00620092 0.02333005
v -0.00249756 -0.01100092 0.02332995
v -0.00366375 -0.00620112 0.0224008
v -0.00366284 -0.01100112 0.02240071
v -0.00450335 -0.00620126 0.02116937
v -0.00450244 -0.01100126 0.02116928
v -0.00494177 -0.01100132 0.01974507
v 0.00999818 0.01100155 0.01900006
v 0.0099991 0.00620155 0.01899997
v 0.00999792 0.01100189 0.00100006
v 0.00999894 0.00620174 0.00849997
v 0.01000146 -0.00619846 0.01899974
v 0.01000237 -0.01099845 0.01899965
v 0.0100013 -0.00619826 0.00849974
v 0.01000211 -0.01099811 0.00099965
v 0.0099997 0.00201108 0.00565346
v 0.00999941 0.00346189 0.00490174
v 0.00999917 0.0046561 0.00378647
v 0.00999899 0.00550513 0.00239036
v 0.00999888 0.005946 0.00081697
v 0.00999886 0.0060019 -3E-08
v 0.00999793 0.01079056 -0.00114593
v 0.00999886 0.00594604 -0.00081703
v 0.00999802 0.01016464 -0.00320947
v 0.00999892 0.00550522 -0.00239045
v 0.00999818 0.00914817 -0.00511124
v 0.00999842 0.00778021 -0.00677817
v 0.00999906 0.00465624 -0.00378659
v 0.00999872 0.00611333 -0.0081462
v 0.00999927 0.00346208 -0.0049019
v 0.00999906 0.0042116 -0.00916274
v 0.00999953 0.00201129 -0.00565367
v 0.00999945 0.00214808 -0.00978874
v 0.00999983 0.00041147 -0.00598615
v 0.00999985 2.09E-06 -0.01000015
v 0.01000027 -0.0021439 -0.00978882
v 0.01000015 -0.00121872 -0.00587467
v 0.01000067 -0.00420744 -0.0091629
v 0.01000045 -0.00275838 -0.00532751
v 0.01000104 -0.00610921 -0.00814643
v 0.01000072 -0.00409333 -0.00438524
v 0.01000138 -0.00777614 -0.00677847
v 0.01000084 -0.0040935 0.00438479
v 0.0100006 -0.00275859 0.00532711
v 0.01000032 -0.00121894 0.00587434
v 0.01000001 0.00041125 0.00598587
v 0.01000167 -0.00914416 -0.00511159
v 0.01000093 -0.00512455 -0.00311775
v 0.01000189 -0.01016071 -0.00320986
v 0.01000108 -0.00577557 -0.00161904
v 0.01000204 -0.01078671 -0.00114634
v 0.01000114 -0.0059981 -2.6E-07
v 0.01000112 -0.00577563 0.00161853
v 0.01000102 -0.00512467 0.00311726
v -0.00999763 -0.01100226 0.01899994
v -0.00999854 -0.00620226 0.01900003
v -0.00999789 -0.01100192 0.00099994
v -0.00999869 -0.00620207 0.00850003
v -0.0100009 0.00619774 0.01900026
v -0.01000182 0.01099773 0.01900035
v -0.01000106 0.00619793 0.00850026
v -0.01000208 0.01099808 0.00100035
v -0.00999968 -0.00122275 0.00587463
v -0.0099994 -0.0027624 0.0053274
v -0.00999886 -0.0060019 3E-08
v -0.00999796 -0.01079052 -0.00114605
v -0.00999892 -0.00577938 -0.00161874
v -0.00999916 -0.00409731 0.00438508
v -0.00999898 -0.00512848 0.00311755
v -0.00999888 -0.00577944 0.00161882
v -0.00999955 -0.00276219 -0.00532722
v -0.00999933 -0.00421125 -0.00916261
v -0.00999895 -0.00611302 -0.00814614
v -0.00999928 -0.00409714 -0.00438495
v -0.00999862 -0.00777995 -0.00677818
v -0.00999907 -0.00512836 -0.00311746
v -0.00999833 -0.00914797 -0.0051113
v -0.00999811 -0.01016452 -0.00320956
v -0.01000083 0.00465229 0.00378676
v -0.01000059 0.00345808 0.00490203
v -0.0100003 0.00200727 0.00565375
v -0.00999999 0.00040744 0.00598617
v -0.00999973 -0.00214771 -0.00978853
v -0.00999985 -0.00122253 -0.00587438
v -0.01000015 -1.72E-06 -0.00999985
v -0.01000017 0.00040766 -0.00598586
v -0.01000055 0.00214427 -0.00978845
v -0.01000047 0.00200748 -0.00565338
v -0.01000093 0.00420779 -0.00916245
v -0.01000101 0.00550132 0.00239066
v -0.01000112 0.0059422 0.00081726
v -0.01000128 0.00610952 -0.0081459
v -0.01000073 0.00345827 -0.00490161
v -0.01000158 0.0077764 -0.00677788
v -0.01000094 0.00465243 -0.00378629
v -0.01000182 0.00914436 -0.00511095
v -0.01000108 0.00550141 -0.00239016
v -0.01000198 0.01016083 -0.00320918
v -0.01000114 0.00594223 -0.00081674
v -0.01000207 0.01078676 -0.00114564
v -0.01000114 0.0059981 2.6E-07
v -0.00104277 -0.01100075 0.02894503
v -0.00308766 -0.01100113 0.0285104
v -0.0049975 -0.01100148 0.02766012
v 0.00978388 -0.01099854 0.02107877
v 0.00913789 -0.0109987 0.02306702
v 0.00809263 -0.01099893 0.02487753
v -0.00668883 -0.01100178 0.02643134
v -0.00808771 -0.01100201 0.02487776
v -0.00913302 -0.01100218 0.02306729
v -0.00977907 -0.01100226 0.02107905
v 0.00669379 -0.01099923 0.02643114
v 0.0050025 -0.01099957 0.02765997
v 0.00309268 -0.01099995 0.02851031
v 0.0010478 -0.01100035 0.028945
v -0.00450663 0.01099874 0.02116969
v -0.00494596 0.01099868 0.01974549
v -0.00978326 0.01099774 0.02107947
v -0.00494598 0.01099871 0.01825507
v -0.00450669 0.01099882 0.01683086
v -0.00366713 0.01099901 0.0155994
v -0.00250188 0.01099925 0.01467012
v -0.00111449 0.01099952 0.01412558
v 0.00037176 0.01099981 0.01401418
v 0.00182482 0.01100008 0.01434581
v -0.00913721 0.01099782 0.02306771
v -0.0080919 0.01099799 0.02487818
v -0.00366703 0.01099888 0.02240112
v -0.00669302 0.01099822 0.02643175
v -0.00250176 0.01099908 0.02333037
v -0.00500169 0.01099852 0.02766054
v -0.00111435 0.01099934 0.02387486
v 0.00311557 0.01100031 0.01509101
v 0.00412933 0.01100048 0.01618355
v -0.00309185 0.01099887 0.02851082
v -0.00104696 0.01099925 0.02894544
v 0.0003719 0.01099962 0.02398622
v 0.00104361 0.01099965 0.02894541
v 0.00182495 0.0109999 0.02365455
v 0.00412942 0.01100037 0.02181675
v 0.0091337 0.0110013 0.02306744
v 0.00477607 0.01100052 0.02047391
v 0.00977969 0.01100146 0.02107918
v 0.00499818 0.01100059 0.01900014
v 0.00477602 0.01100058 0.01752636
v 0.00308849 0.01100005 0.02851073
v 0.00499831 0.01100043 0.02766039
v 0.00311569 0.01100016 0.02290932
v 0.0066896 0.01100077 0.02643156
v 0.00808844 0.01100107 0.02487794
v 0.00182587 0.0061999 0.02365446
v 0.00037282 0.00619962 0.02398613
v -8.3E-07 0.00619955 0.02400012
v -0.00111344 0.00619934 0.02387477
v -0.00250084 0.00619908 0.02333028
v -0.00366611 0.00619888 0.02240103
v -0.00450572 0.00619874 0.0211696
v -0.00494505 0.00619868 0.0197454
v -0.00494507 0.00619871 0.01825498
v -0.00450578 0.00619882 0.01683076
v -0.00366621 0.00619901 0.01559931
v -0.00250097 0.00619925 0.01467003
v -0.00111358 0.00619952 0.01412549
v 0.00037267 0.00619981 0.01401409
v 0.00182573 0.00620008 0.01434572
v 0.00311649 0.00620031 0.01509092
v 0.00413025 0.00620048 0.01618346
v 0.00477694 0.00620058 0.01752627
v 0.0049991 0.00620059 0.01900004
v 0.00477698 0.00620052 0.02047382
v 0.00413033 0.00620037 0.02181666
v 0.0031166 0.00620016 0.02290923
v -0.00104368 -0.00620075 0.02894512
v 0.00104689 -0.00620035 0.02894508
v -0.00977999 -0.00620226 0.02107914
v -0.00913394 -0.00620218 0.02306738
v -0.00808863 -0.00620201 0.02487785
v -0.00668974 -0.00620178 0.02643143
v -0.00499842 -0.00620148 0.02766021
v -0.00308857 -0.00620113 0.02851049
v 0.00913697 -0.0061987 0.02306711
v 0.00978296 -0.00619854 0.02107886
v 0.00309177 -0.00619995 0.0285104
v 0.00500158 -0.00619957 0.02766006
v 0.00669287 -0.00619923 0.02643123
v 0.00809171 -0.00619893 0.02487762
v 0.0097806 0.00620146 0.02107909
v 0.00913461 0.0062013 0.02306735
v 0.00808935 0.00620107 0.02487785
v -0.00978235 0.00619774 0.02107938
v -0.0091363 0.00619782 0.02306762
v -0.00809099 0.00619799 0.02487809
v 0.00669051 0.00620077 0.02643147
v 0.00499922 0.00620043 0.0276603
v 0.0030894 0.00620005 0.02851064
v 0.00104453 0.00619965 0.02894532
v -0.00104604 0.00619925 0.02894535
v -0.00309094 0.00619887 0.02851073
v -0.00500078 0.00619852 0.02766044
v -0.0066921 0.00619823 0.02643166
vn 0.99993 -0.01144 -1E-05
vn 0.9972 0.00019 0.07472
vn 0.95558 0.00018 0.29474
vn 0.82625 0.00015 0.56331
vn 0.6235 0.0001 0.78182
vn 0.36535 5E-05 0.93087
vn 0.11198 0 0.99371
vn 0.07474 0.00872 0.99716
vn -0.03738 -3E-05 0.9993
vn -0.22251 -6E-05 0.97493
vn -0.49999 -0.00011 0.86603
vn -0.73304 -0.00015 0.68018
vn -0.90096 -0.00018 0.4339
vn -0.98883 -0.00019 0.14906
vn -0.98883 -0.00019 -0.14903
vn -0.90098 -0.00016 -0.43387
vn -0.73306 -0.00013 -0.68016
vn -0.50001 -8E-05 -0.86602
vn -0.22253 -2E-05 -0.97492
vn 0.07472 3E-05 -0.9972
vn 0.36533 9E-05 -0.93088
vn 0.62348 0.00013 -0.78184
vn 0.82623 0.00017 -0.56333
vn 0.95557 0.00019 -0.29477
vn 0.9972 0.00019 -0.07474
vn 1 0.00019 -1E-05
vn -1 -0.00019 1E-05
vn 0.00019 -1 -2E-05
vn -0.00019 1 2E-05
vn -0.00019 0.99069 -0.13615
vn -0.00018 0.91722 -0.39838
vn -0.00016 0.77572 -0.63107
vn -0.00012 0.5767 -0.81696
vn -8E-05 0.3349 -0.94225
vn -3E-05 0.06826 -0.99767
vn 2E-05 -0.20344 -0.97909
vn 7E-05 -0.46005 -0.88789
vn 0.00012 -0.68254 -0.73085
vn 0.00016 -0.85441 -0.5196
vn 0.00018 -0.96291 -0.26981
vn 0.00019 -0.99767 -0.06826
vn 0.00019 -0.99767 0.06822
vn 0.00019 -0.96292 0.26978
vn 0.00017 -0.85443 0.51957
vn 0.00014 -0.68257 0.73082
vn 0.0001 -0.46008 0.88788
vn 5E-05 -0.20347 0.97908
vn 0 0.06822 0.99767
vn -5E-05 0.33486 0.94227
vn -0.0001 0.57666 0.81698
vn -0.00014 0.7757 0.6311
vn -0.00017 0.9172 0.39842
vn -0.00019 0.99068 0.13619
vn -0.03741 1E-05 -0.9993
vn 0.07471 -0.00869 -0.99717
vn 0.11195 4E-05 -0.99371
vn 0.07474 -0 0.9972
vn 1E-05 -2E-05 1
vn -3E-05 0.09804 -0.99518
vn -7E-05 0.2903 -0.95693
vn -0.0001 0.47141 -0.88191
vn -0.00013 0.63441 -0.773
vn -0.00016 0.77302 -0.63438
vn -0.00017 0.88193 -0.47138
vn -0.00019 0.95695 -0.29027
vn -0.00019 0.99519 -0.098
vn 0.00019 -0.99518 -0.09804
vn 0.00018 -0.95693 -0.2903
vn 0.00016 -0.88191 -0.47141
vn 0.00014 -0.773 -0.63441
vn 0.00011 -0.63438 -0.77302
vn 8E-05 -0.47138 -0.88193
vn 4E-05 -0.29027 -0.95695
vn 0 -0.098 -0.99519
vn -0.99452 -0.00019 0.10454
vn -0.95105 -0.00019 0.30903
vn -0.86602 -0.00017 0.50001
vn -0.74313 -0.00015 0.66914
vn -0.58777 -0.00013 0.80903
vn -0.40672 -9E-05 0.91355
vn -0.2079 -6E-05 0.97815
vn 0.20793 2E-05 0.97814
vn 0.40675 6E-05 0.91354
vn 0.5878 0.0001 0.80901
vn 0.74315 0.00013 0.66912
vn 0.86603 0.00016 0.49999
vn 0.95106 0.00018 0.309
vn 0.99452 0.00019 0.10451
f 1//1 2//1 3//1
f 3//2 2//2 4//2
f 3//3 4//3 5//3
f 5//3 4//3 6//3
f 5//4 6//4 7//4
f 7//4 6//4 8//4
f 7//5 8//5 9//5
f 9//5 8//5 10//5
f 9//6 10//6 11//6
f 11//6 10//6 12//6
f 11//7 12//7 13//7
f 13//8 12//8 14//8
f 13//9 14//9 15//9
f 15//10 14//10 16//10
f 16//10 14//10 17//10
f 16//11 17//11 18//11
f 18//11 17//11 19//11
f 18//12 19//12 20//12
f 20//12 19//12 21//12
f 20//13 21//13 22//13
f 22//13 21//13 23//13
f 22//14 23//14 24//14
f 24//14 23//14 25//14
f 24//15 25//15 26//15
f 26//15 25//15 27//15
f 26//16 27//16 28//16
f 28//16 27//16 29//16
f 28//17 29//17 30//17
f 30//17 29//17 31//17
f 30//18 31//18 32//18
f 32//18 31//18 33//18
f 32//19 33//19 34//19
f 34//19 33//19 35//19
f 34//20 35//20 36//20
f 36//20 35//20 37//20
f 36//21 37//21 38//21
f 38//21 37//21 39//21
f 38//22 39//22 40//22
f 40//22 39//22 41//22
f 40//23 41//23 42//23
f 42//23 41//23 43//23
f 42//24 43//24 1//24
f 1//24 43//24 44//24
f 1//25 44//25 2//25
f 45//26 46//26 47//26
f 47//26 46//26 48//26
f 49//26 50//26 51//26
f 51//26 50//26 52//26
f 53//26 54//26 48//26
f 48//26 54//26 55//26
f 48//26 55//26 47//26
f 47//26 55//26 56//26
f 56//26 57//26 47//26
f 47//26 57//26 58//26
f 47//26 58//26 59//26
f 59//26 58//26 60//26
f 59//26 60//26 61//26
f 61//26 60//26 62//26
f 61//26 62//26 63//26
f 63//26 62//26 64//26
f 64//26 62//26 65//26
f 64//26 65//26 66//26
f 66//26 65//26 67//26
f 66//26 67//26 68//26
f 68//26 67//26 69//26
f 68//26 69//26 70//26
f 70//26 69//26 71//26
f 70//26 71//26 72//26
f 72//26 71//26 73//26
f 73//26 71//26 74//26
f 73//26 74//26 75//26
f 75//26 74//26 76//26
f 75//26 76//26 77//26
f 77//26 76//26 78//26
f 77//26 78//26 79//26
f 80//26 81//26 51//26
f 51//26 81//26 82//26
f 51//26 82//26 48//26
f 48//26 82//26 83//26
f 48//26 83//26 53//26
f 79//26 78//26 84//26
f 84//26 78//26 85//26
f 84//26 85//26 86//26
f 86//26 85//26 87//26
f 86//26 87//26 88//26
f 88//26 87//26 89//26
f 88//26 89//26 52//26
f 52//26 89//26 90//26
f 52//26 90//26 51//26
f 51//26 90//26 91//26
f 51//26 91//26 80//26
f 92//27 93//27 94//27
f 94//27 93//27 95//27
f 96//27 97//27 98//27
f 98//27 97//27 99//27
f 100//27 101//27 95//27
f 94//27 102//27 103//27
f 103//27 102//27 104//27
f 101//27 105//27 95//27
f 95//27 105//27 106//27
f 95//27 106//27 94//27
f 94//27 106//27 107//27
f 94//27 107//27 102//27
f 108//27 109//27 110//27
f 108//27 110//27 111//27
f 111//27 110//27 112//27
f 111//27 112//27 113//27
f 113//27 112//27 114//27
f 113//27 114//27 104//27
f 104//27 114//27 115//27
f 104//27 115//27 103//27
f 116//27 117//27 98//27
f 98//27 117//27 118//27
f 98//27 118//27 95//27
f 95//27 118//27 119//27
f 95//27 119//27 100//27
f 109//27 108//27 120//27
f 120//27 108//27 121//27
f 120//27 121//27 122//27
f 122//27 121//27 123//27
f 122//27 123//27 124//27
f 124//27 123//27 125//27
f 124//27 125//27 126//27
f 116//27 98//27 127//27
f 127//27 98//27 99//27
f 127//27 99//27 128//27
f 126//27 125//27 129//27
f 129//27 125//27 130//27
f 129//27 130//27 131//27
f 131//27 130//27 132//27
f 131//27 132//27 133//27
f 133//27 132//27 134//27
f 133//27 134//27 135//27
f 135//27 134//27 136//27
f 135//27 136//27 137//27
f 137//27 136//27 99//27
f 99//27 136//27 138//27
f 99//27 138//27 128//27
f 27//28 25//28 50//28
f 50//28 25//28 23//28
f 50//28 23//28 52//28
f 52//28 23//28 21//28
f 52//28 21//28 19//28
f 35//28 139//28 37//28
f 37//28 139//28 140//28
f 37//28 140//28 39//28
f 39//28 140//28 141//28
f 39//28 141//28 41//28
f 19//28 17//28 52//28
f 52//28 17//28 14//28
f 52//28 14//28 94//28
f 94//28 14//28 12//28
f 94//28 12//28 10//28
f 10//28 8//28 94//28
f 94//28 8//28 6//28
f 94//28 6//28 92//28
f 50//28 142//28 27//28
f 27//28 142//28 143//28
f 27//28 143//28 29//28
f 29//28 143//28 144//28
f 29//28 144//28 31//28
f 141//28 145//28 41//28
f 41//28 145//28 146//28
f 41//28 146//28 43//28
f 43//28 146//28 147//28
f 43//28 147//28 44//28
f 44//28 147//28 148//28
f 44//28 148//28 2//28
f 2//28 148//28 92//28
f 2//28 92//28 4//28
f 4//28 92//28 6//28
f 144//28 149//28 31//28
f 31//28 149//28 150//28
f 31//28 150//28 33//28
f 33//28 150//28 151//28
f 33//28 151//28 35//28
f 35//28 151//28 152//28
f 35//28 152//28 139//28
f 153//29 154//29 155//29
f 155//29 154//29 97//29
f 97//29 154//29 156//29
f 97//29 156//29 99//29
f 99//29 156//29 157//29
f 99//29 157//29 158//29
f 158//29 159//29 99//29
f 99//29 159//29 160//29
f 99//29 160//29 47//29
f 47//29 160//29 161//29
f 47//29 161//29 162//29
f 155//29 163//29 153//29
f 153//29 163//29 164//29
f 153//29 164//29 165//29
f 165//29 164//29 166//29
f 165//29 166//29 167//29
f 167//29 166//29 168//29
f 167//29 168//29 169//29
f 162//29 170//29 47//29
f 47//29 170//29 171//29
f 47//29 171//29 45//29
f 168//29 172//29 169//29
f 169//29 172//29 173//29
f 169//29 173//29 174//29
f 174//29 173//29 175//29
f 174//29 175//29 176//29
f 177//29 178//29 179//29
f 179//29 178//29 180//29
f 179//29 180//29 181//29
f 181//29 180//29 45//29
f 181//29 45//29 182//29
f 182//29 45//29 171//29
f 175//29 183//29 176//29
f 176//29 183//29 184//29
f 176//29 184//29 185//29
f 185//29 184//29 186//29
f 185//29 186//29 177//29
f 177//29 186//29 187//29
f 177//29 187//29 178//29
f 89//30 102//30 90//30
f 90//30 102//30 107//30
f 90//31 107//31 91//31
f 91//31 107//31 106//31
f 91//32 106//32 80//32
f 80//32 106//32 105//32
f 80//33 105//33 81//33
f 81//33 105//33 101//33
f 81//34 101//34 82//34
f 82//34 101//34 100//34
f 82//35 100//35 83//35
f 83//35 100//35 119//35
f 83//36 119//36 53//36
f 53//36 119//36 118//36
f 53//37 118//37 54//37
f 54//37 118//37 117//37
f 54//38 117//38 55//38
f 55//38 117//38 116//38
f 55//39 116//39 56//39
f 56//39 116//39 127//39
f 56//40 127//40 57//40
f 57//40 127//40 128//40
f 57//41 128//41 58//41
f 58//41 128//41 138//41
f 58//42 138//42 60//42
f 60//42 138//42 136//42
f 60//43 136//43 62//43
f 62//43 136//43 134//43
f 62//44 134//44 65//44
f 65//44 134//44 132//44
f 65//45 132//45 67//45
f 67//45 132//45 130//45
f 67//46 130//46 69//46
f 69//46 130//46 125//46
f 69//47 125//47 71//47
f 71//47 125//47 123//47
f 71//48 123//48 74//48
f 74//48 123//48 121//48
f 74//49 121//49 76//49
f 76//49 121//49 108//49
f 76//50 108//50 78//50
f 78//50 108//50 111//50
f 78//51 111//51 85//51
f 85//51 111//51 113//51
f 85//52 113//52 87//52
f 87//52 113//52 104//52
f 87//53 104//53 89//53
f 89//53 104//53 102//53
f 188//19 189//19 174//19
f 174//54 189//54 190//54
f 174//55 190//55 169//55
f 169//56 190//56 191//56
f 169//21 191//21 167//21
f 167//21 191//21 192//21
f 167//22 192//22 165//22
f 165//22 192//22 193//22
f 165//23 193//23 153//23
f 153//23 193//23 194//23
f 153//24 194//24 154//24
f 154//24 194//24 195//24
f 154//26 195//26 156//26
f 156//26 195//26 196//26
f 156//3 196//3 157//3
f 157//3 196//3 197//3
f 157//4 197//4 158//4
f 158//4 197//4 198//4
f 158//5 198//5 159//5
f 159//5 198//5 199//5
f 159//6 199//6 160//6
f 160//6 199//6 200//6
f 160//57 200//57 161//57
f 161//57 200//57 201//57
f 161//10 201//10 162//10
f 162//10 201//10 202//10
f 162//11 202//11 170//11
f 170//11 202//11 203//11
f 170//12 203//12 171//12
f 171//12 203//12 204//12
f 171//13 204//13 182//13
f 182//13 204//13 205//13
f 182//14 205//14 181//14
f 181//14 205//14 206//14
f 181//15 206//15 179//15
f 179//15 206//15 207//15
f 179//16 207//16 177//16
f 177//16 207//16 208//16
f 177//17 208//17 185//17
f 185//17 208//17 209//17
f 185//18 209//18 176//18
f 176//18 209//18 188//18
f 176//19 188//19 174//19
f 7//29 9//29 95//29
f 36//29 210//29 34//29
f 34//29 210//29 211//29
f 34//29 211//29 32//29
f 42//29 1//29 212//29
f 212//29 1//29 93//29
f 93//29 1//29 3//29
f 93//29 3//29 95//29
f 95//29 3//29 5//29
f 95//29 5//29 7//29
f 9//29 11//29 95//29
f 95//29 11//29 13//29
f 95//29 13//29 51//29
f 51//29 13//29 15//29
f 51//29 15//29 16//29
f 16//29 18//29 51//29
f 51//29 18//29 20//29
f 51//29 20//29 49//29
f 212//29 213//29 42//29
f 42//29 213//29 214//29
f 42//29 214//29 40//29
f 40//29 214//29 215//29
f 40//29 215//29 38//29
f 38//29 215//29 216//29
f 38//29 216//29 36//29
f 36//29 216//29 217//29
f 36//29 217//29 210//29
f 28//29 218//29 26//29
f 26//29 218//29 219//29
f 26//29 219//29 24//29
f 24//29 219//29 49//29
f 24//29 49//29 22//29
f 22//29 49//29 20//29
f 211//29 220//29 32//29
f 32//29 220//29 221//29
f 32//29 221//29 30//29
f 30//29 221//29 222//29
f 30//29 222//29 28//29
f 28//29 222//29 223//29
f 28//29 223//29 218//29
f 203//28 202//28 48//28
f 48//28 202//28 201//28
f 48//28 201//28 98//28
f 98//28 201//28 200//28
f 98//28 200//28 199//28
f 46//28 224//28 207//28
f 207//28 224//28 225//28
f 207//28 225//28 208//28
f 208//28 225//28 226//28
f 208//28 226//28 209//28
f 207//28 206//28 46//28
f 46//28 206//28 205//28
f 46//28 205//28 48//28
f 48//28 205//28 204//28
f 48//28 204//28 203//28
f 199//28 198//28 98//28
f 98//28 198//28 197//28
f 98//28 197//28 96//28
f 96//28 197//28 196//28
f 96//28 196//28 227//28
f 227//28 196//28 195//28
f 227//28 195//28 228//28
f 228//28 195//28 194//28
f 228//28 194//28 229//28
f 229//28 194//28 193//28
f 226//28 230//28 209//28
f 209//28 230//28 231//28
f 209//28 231//28 188//28
f 188//28 231//28 232//28
f 188//28 232//28 189//28
f 189//28 232//28 233//28
f 189//28 233//28 190//28
f 190//28 233//28 234//28
f 190//28 234//28 191//28
f 191//28 234//28 235//28
f 191//28 235//28 192//28
f 192//28 235//28 236//28
f 192//28 236//28 193//28
f 193//28 236//28 237//28
f 193//28 237//28 229//28
f 98//58 95//58 48//58
f 48//58 95//58 51//58
f 72//59 122//59 124//59
f 72//59 124//59 70//59
f 70//60 124//60 126//60
f 70//60 126//60 68//60
f 68//61 126//61 129//61
f 68//61 129//61 66//61
f 66//62 129//62 131//62
f 66//62 131//62 64//62
f 64//63 131//63 133//63
f 64//63 133//63 63//63
f 63//64 133//64 135//64
f 63//64 135//64 61//64
f 61//65 135//65 137//65
f 61//65 137//65 59//65
f 59//66 137//66 99//66
f 59//66 99//66 47//66
f 52//67 94//67 103//67
f 52//67 103//67 88//67
f 88//68 103//68 115//68
f 88//68 115//68 86//68
f 86//69 115//69 114//69
f 86//69 114//69 84//69
f 84//70 114//70 112//70
f 84//70 112//70 79//70
f 79//71 112//71 110//71
f 79//71 110//71 77//71
f 77//72 110//72 109//72
f 77//72 109//72 75//72
f 75//73 109//73 120//73
f 75//73 120//73 73//73
f 73//74 120//74 122//74
f 73//74 122//74 72//74
f 93//75 92//75 148//75
f 93//75 148//75 212//75
f 212//76 148//76 147//76
f 212//76 147//76 213//76
f 213//77 147//77 146//77
f 213//77 146//77 214//77
f 214//78 146//78 145//78
f 214//78 145//78 215//78
f 215//79 145//79 141//79
f 215//79 141//79 216//79
f 216//80 141//80 140//80
f 216//80 140//80 217//80
f 217//81 140//81 139//81
f 217//81 139//81 210//81
f 210//58 139//58 152//58
f 210//58 152//58 211//58
f 211//82 152//82 151//82
f 211//82 151//82 220//82
f 220//83 151//83 150//83
f 220//83 150//83 221//83
f 221//84 150//84 149//84
f 221//84 149//84 222//84
f 222//85 149//85 144//85
f 222//85 144//85 223//85
f 223//86 144//86 143//86
f 223//86 143//86 218//86
f 218//87 143//87 142//87
f 218//87 142//87 219//87
f 219//88 142//88 50//88
f 219//88 50//88 49//88
f 97//75 96//75 227//75
f 97//75 227//75 155//75
f 155//76 227//76 228//76
f 155//76 228//76 163//76
f 163//77 228//77 229//77
f 163//77 229//77 164//77
f 164//78 229//78 237//78
f 164//78 237//78 166//78
f 166//79 237//79 236//79
f 166//79 236//79 168//79
f 168//80 236//80 235//80
f 168//80 235//80 172//80
f 172//81 235//81 234//81
f 172//81 234//81 173//81
f 173//58 234//58 233//58
f 173//58 233//58 175//58
f 175//82 233//82 232//82
f 175//82 232//82 183//82
f 183//83 232//83 231//83
f 183//83 231//83 184//83
f 184//84 231//84 230//84
f 184//84 230//84 186//84
f 186//85 230//85 226//85
f 186//85 226//85 187//85
f 187//86 226//86 225//86
f 187//86 225//86 178//86
f 178//87 225//87 224//87
f 178//87 224//87 180//87
f 180//88 224//88 46//88
f 180//88 46//88 45//88
# Vertices: 237, normals: 88, texture coordinates: 0, faces: 482

