# https://github.com/mikedh/trimesh
v -5.00000000 -5.00000000 -0.10000000
v -5.00000000 -5.00000000 0.00000000
v -5.00000000 5.00000000 -0.10000000
v -5.00000000 5.00000000 0.00000000
v 5.00000000 -5.00000000 -0.10000000
v 5.00000000 -5.00000000 0.00000000
v 5.00000000 5.00000000 -0.10000000
v 5.00000000 5.00000000 0.00000000
v -0.99219826 -0.50337128 0.00000000
v -0.88723321 -0.39781401 0.33600000
v -1.22944047 0.41652879 0.00000000
v -1.08651666 0.37490205 0.33600000
v 0.55710712 -0.10380546 0.00000000
v 0.41418331 -0.06217872 0.33600000
v 0.31986491 0.81609461 0.00000000
v 0.21489986 0.71053734 0.33600000
f 2 4 1
f 5 2 1
f 1 4 3
f 3 5 1
f 2 8 4
f 6 2 5
f 6 8 2
f 4 8 3
f 7 5 3
f 3 8 7
f 7 6 5
f 8 6 7
f 10 12 9
f 13 10 9
f 9 12 11
f 11 13 9
f 10 16 12
f 14 10 13
f 14 16 10
f 12 16 11
f 15 13 11
f 11 16 15
f 15 14 13
f 16 14 15

